<svg width="16" height="16" viewBox="0 0 16 16" fill="none" xmlns="http://www.w3.org/2000/svg">
<path d="M3.34748 5.38428C3.27111 5.46003 3.21049 5.55016 3.16912 5.64946C3.12774 5.74876 3.10645 5.85527 3.10645 5.96284C3.10645 6.07041 3.12774 6.17692 3.16912 6.27622C3.21049 6.37552 3.27111 6.46565 3.34748 6.5414L7.42186 10.6158C7.49762 10.6922 7.58774 10.7528 7.68704 10.7942C7.78635 10.8355 7.89285 10.8568 8.00043 10.8568C8.108 10.8568 8.21451 10.8355 8.31381 10.7942C8.41311 10.7528 8.50324 10.6922 8.57899 10.6158L12.6534 6.5414C12.7297 6.46565 12.7904 6.37552 12.8317 6.27622C12.8731 6.17692 12.8944 6.07041 12.8944 5.96284C12.8944 5.85527 12.8731 5.74876 12.8317 5.64946C12.7904 5.55016 12.7297 5.46003 12.6534 5.38428C12.5776 5.3079 12.4875 5.24728 12.3882 5.20591C12.2889 5.16454 12.1824 5.14324 12.0748 5.14324C11.9672 5.14324 11.8607 5.16454 11.7614 5.20591C11.6621 5.24728 11.572 5.3079 11.4962 5.38428L8.00043 8.88825L4.50461 5.38428C4.42886 5.3079 4.33873 5.24728 4.23943 5.20591C4.14013 5.16454 4.03362 5.14324 3.92605 5.14324C3.81847 5.14324 3.71196 5.16454 3.61266 5.20591C3.51336 5.24728 3.42324 5.3079 3.34748 5.38428Z" fill="#F4B41A"/>
</svg>
