<svg width="58" height="56" viewBox="0 0 58 56" fill="none" xmlns="http://www.w3.org/2000/svg">
<path fill-rule="evenodd" clip-rule="evenodd" d="M25.0159 22.0411H4.46516C2.49055 22.0411 0.875 23.6566 0.875 25.6312V51.8769C0.875 53.8515 2.49055 55.4671 4.46516 55.4671H25.0159C26.9905 55.4671 28.606 53.8515 28.606 51.8769V25.6312C28.6061 23.6566 26.9906 22.0411 25.0159 22.0411ZM10.3302 49.4886C10.3302 49.9432 9.95949 50.3139 9.5048 50.3139H6.4202C5.96562 50.3139 5.59484 49.9431 5.59484 49.4886V48.4157C5.59484 47.9611 5.96562 47.5903 6.4202 47.5903H9.50492C9.95949 47.5903 10.3303 47.9611 10.3303 48.4157L10.3302 49.4886ZM10.3302 43.7008C10.3302 44.1554 9.95949 44.5262 9.5048 44.5262H6.4202C5.96562 44.5262 5.59484 44.1554 5.59484 43.7008V42.6279C5.59484 42.1733 5.96562 41.8025 6.4202 41.8025H9.50492C9.95949 41.8025 10.3303 42.1733 10.3303 42.6279L10.3302 43.7008ZM10.3302 37.9133C10.3302 38.3679 9.95949 38.7387 9.5048 38.7387H6.4202C5.96562 38.7387 5.59484 38.3679 5.59484 37.9133V36.8403C5.59484 36.3858 5.96562 36.0151 6.4202 36.0151H9.50492C9.95949 36.0151 10.3303 36.3859 10.3303 36.8403L10.3302 37.9133ZM17.1082 49.4886C17.1082 49.9432 16.7375 50.3139 16.2829 50.3139H13.1982C12.7436 50.3139 12.3729 49.9431 12.3729 49.4886V48.4157C12.3729 47.9611 12.7436 47.5903 13.1982 47.5903H16.2829C16.7375 47.5903 17.1082 47.9611 17.1082 48.4157V49.4886ZM17.1082 43.7008C17.1082 44.1554 16.7375 44.5262 16.2829 44.5262H13.1982C12.7436 44.5262 12.3729 44.1554 12.3729 43.7008V42.6279C12.3729 42.1733 12.7436 41.8025 13.1982 41.8025H16.2829C16.7375 41.8025 17.1082 42.1733 17.1082 42.6279V43.7008ZM17.1082 37.9133C17.1082 38.3679 16.7375 38.7387 16.2829 38.7387H13.1982C12.7436 38.7387 12.3729 38.3679 12.3729 37.9133V36.8403C12.3729 36.3858 12.7436 36.0151 13.1982 36.0151H16.2829C16.7375 36.0151 17.1082 36.3859 17.1082 36.8403V37.9133ZM23.8863 49.4886C23.8863 49.9432 23.5155 50.3139 23.0609 50.3139H19.9762C19.5216 50.3139 19.1509 49.9431 19.1509 49.4886V48.4157C19.1509 47.9611 19.5216 47.5903 19.9762 47.5903H23.0609C23.5155 47.5903 23.8863 47.9611 23.8863 48.4157V49.4886ZM23.8863 43.7008C23.8863 44.1554 23.5155 44.5262 23.0609 44.5262H19.9762C19.5216 44.5262 19.1509 44.1554 19.1509 43.7008V42.6279C19.1509 42.1733 19.5216 41.8025 19.9762 41.8025H23.0609C23.5155 41.8025 23.8863 42.1733 23.8863 42.6279V43.7008ZM23.8863 37.9133C23.8863 38.3679 23.5155 38.7387 23.0609 38.7387H19.9762C19.5216 38.7387 19.1509 38.3679 19.1509 37.9133V36.8403C19.1509 36.3858 19.5216 36.0151 19.9762 36.0151H23.0609C23.5155 36.0151 23.8863 36.3859 23.8863 36.8403V37.9133ZM24.6445 31.2591C24.6445 31.7136 24.2737 32.0844 23.8191 32.0844H5.66187C5.2073 32.0844 4.83652 31.7136 4.83652 31.2591V28.0195C4.83652 27.5649 5.2073 27.1942 5.66187 27.1942H23.8193C24.2738 27.1942 24.6446 27.5649 24.6446 28.0195V31.2591H24.6445ZM50.2579 0.628936V6.8462C50.2579 7.15124 50.5067 7.39991 50.8116 7.39991H57.029C56.9754 7.28226 56.8992 7.17397 56.8006 7.07554L50.5823 0.857217C50.4837 0.758897 50.3755 0.682725 50.2579 0.628936ZM50.8116 9.27491C49.4718 9.27491 48.383 8.18612 48.383 6.84632V0.532959H15.848C15.238 0.532959 14.7405 1.03054 14.7405 1.6405V20.1662H25.016C28.0217 20.1662 30.481 22.6255 30.481 25.6312V31.1579L30.5005 31.1428C30.7535 30.9451 31.0766 30.8986 31.3609 30.9895L40.5314 33.9612L48.0414 26.3869L47.4233 26.4411C46.9075 26.4857 46.4533 26.1035 46.4089 25.5879C46.3645 25.0721 46.7465 24.6179 47.2621 24.5735L50.4247 24.2961C51.0364 24.2434 51.5319 24.7919 51.4291 25.3895L51.0827 28.4875C51.0261 29.0012 50.5637 29.3716 50.0499 29.315C49.5362 29.2584 49.1657 28.796 49.2223 28.2823L49.2767 27.7966L41.4534 35.6867C41.2136 35.9275 40.8506 36.0285 40.5049 35.9175L31.2581 32.9205L30.4813 33.5255V37.5955H32.7541C33.2704 37.5955 33.6916 38.0167 33.6916 38.533V53.3575C33.6916 53.8738 33.2704 54.295 32.7541 54.295H29.9129C29.7017 54.7195 29.437 55.1132 29.1275 55.4669H56.0176C56.6275 55.4669 57.1251 54.9694 57.1251 54.3594V9.27491H50.8116ZM36.9073 7.0044H45.7783C46.2961 7.0044 46.7158 7.42417 46.7158 7.9419C46.7158 8.45964 46.2961 8.8794 45.7783 8.8794H36.9073C36.3896 8.8794 35.9698 8.45964 35.9698 7.9419C35.9698 7.42417 36.3896 7.0044 36.9073 7.0044ZM26.0279 17.1674C22.2355 17.1674 19.1612 14.0931 19.1612 10.3007C19.1612 6.50823 22.2356 3.43394 26.0279 3.43394C29.8203 3.43394 32.8946 6.50823 32.8946 10.3007C32.8946 14.0931 29.8203 17.1674 26.0279 17.1674ZM49.4695 13.5969H36.9073C36.3896 13.5969 35.9698 13.1771 35.9698 12.6594C35.9698 12.1417 36.3896 11.7219 36.9073 11.7219H49.4695C49.9872 11.7219 50.407 12.1417 50.407 12.6594C50.407 13.1771 49.9872 13.5969 49.4695 13.5969ZM43.4063 53.3575C43.4063 53.8738 42.9852 54.295 42.4688 54.295C41.3498 54.295 40.2308 54.295 39.1118 54.295C38.5954 54.295 38.1743 53.8738 38.1743 53.3575C38.1743 48.2701 38.1743 45.8011 38.1743 40.7136C38.1741 40.1973 38.5953 39.776 39.1118 39.776H42.4688C42.9852 39.776 43.4063 40.1972 43.4063 40.7136V53.3575ZM53.1211 53.3575C53.1211 53.8738 52.6999 54.295 52.1836 54.295H48.8266C48.3103 54.295 47.8891 53.8738 47.8891 53.3575V31.6699C47.8891 31.1536 48.3103 30.7324 48.8266 30.7324H52.1836C52.6999 30.7324 53.1211 31.1536 53.1211 31.6699V53.3575ZM28.9138 7.85202C28.5196 6.91358 27.7838 6.35519 26.9654 6.11847V5.95522C26.9654 5.43749 26.5456 5.01772 26.0279 5.01772C25.5102 5.01772 25.0904 5.43749 25.0904 5.95522V6.13065C23.9129 6.48081 23.0581 7.45253 23.1202 8.72929C23.1962 10.2951 24.5068 10.9725 25.8841 11.1987C26.3493 11.2751 27.2182 11.4369 27.2886 12.0178C27.2937 12.061 27.2964 12.084 27.2966 12.0876C27.3068 12.5198 26.6439 12.6821 26.3156 12.7219C26.2225 12.7331 26.1492 12.7393 26.0957 12.7406C25.5363 12.754 24.8826 12.5232 24.7333 11.9242C24.6099 11.4226 24.1033 11.116 23.6018 11.2393C23.1002 11.3627 22.7936 11.8693 22.9169 12.3709C23.1889 13.4618 24.0269 14.206 25.0905 14.4866V14.6457C25.0905 15.1635 25.5103 15.5832 26.028 15.5832C26.5457 15.5832 26.9655 15.1635 26.9655 14.6457V14.506C28.1779 14.2227 29.1963 13.3864 29.1643 12.0436C29.162 11.9448 29.1568 11.8625 29.1491 11.798C28.9552 10.2014 27.6001 9.58523 26.1845 9.35284C25.8015 9.28991 25.0122 9.14026 24.988 8.64128C24.9668 8.20417 25.3692 7.96546 25.7476 7.88929C26.3342 7.77116 26.943 7.9998 27.1854 8.57694C27.3855 9.05425 27.9349 9.2789 28.4122 9.07862C28.8894 8.8787 29.1139 8.32933 28.9138 7.85202Z" fill="white"/>
</svg>
