<svg width="16" height="16" viewBox="0 0 16 16" fill="none" xmlns="http://www.w3.org/2000/svg">
<path d="M7.6216 0C7.99897 0 8.26178 0.229245 8.41004 0.687737C8.42352 0.741676 8.43025 2.13064 8.43025 4.85461V8.90013L9.9667 7.36283L11.1393 6.23009C11.2875 6.08175 11.392 5.9941 11.4526 5.96713C11.5133 5.94016 11.584 5.92667 11.6649 5.92667H11.7862C11.9344 5.92667 12.0423 5.93679 12.1096 5.95702C12.177 5.97724 12.2444 6.02107 12.3118 6.0885C12.4196 6.19638 12.4938 6.29077 12.5342 6.37168C12.6016 6.49305 12.6353 6.63464 12.6353 6.79646C12.6353 6.87737 12.6049 6.97514 12.5443 7.08976C12.4837 7.20438 11.7289 7.98652 10.2801 9.43616C8.83121 10.8858 8.05625 11.6443 7.95517 11.7118C7.85409 11.7792 7.72942 11.8129 7.58116 11.8129C7.43291 11.8129 7.30824 11.7792 7.20716 11.7118C7.10608 11.6443 6.33111 10.8858 4.88227 9.43616C3.43343 7.98652 2.67868 7.20438 2.61803 7.08976C2.55738 6.97514 2.52705 6.87737 2.52705 6.79646C2.52705 6.63464 2.56075 6.49305 2.62814 6.37168C2.66857 6.29077 2.7427 6.19638 2.85052 6.0885C2.91791 6.02107 2.98529 5.97724 3.05268 5.95702C3.12007 5.93679 3.22789 5.92667 3.37615 5.92667H3.49744C3.57831 5.92667 3.64907 5.94016 3.70972 5.96713C3.77037 5.9941 3.87482 6.08175 4.02307 6.23009L5.19562 7.36283L6.73207 8.90013V4.85461C6.73207 2.13064 6.73881 0.741676 6.75229 0.687737C6.81968 0.471976 6.91402 0.310155 7.03532 0.202275C7.18357 0.0674248 7.379 0 7.6216 0ZM0.869307 10.9633C0.721053 10.9633 0.609863 10.9768 0.535736 11.0038C0.461609 11.0308 0.390851 11.078 0.323463 11.1454L0.303247 11.1656C0.154993 11.3139 0.0673881 11.4421 0.0404329 11.5499C0.0269553 11.6174 0.0134776 11.7118 0 11.8331V12.7838C0 13.2828 0.00336941 13.5895 0.0101082 13.7042C0.016847 13.8188 0.0404329 13.9368 0.0808658 14.0582L0.141515 14.3009C0.222381 14.6245 0.444762 14.9684 0.808658 15.3325C1.11864 15.6426 1.44884 15.8314 1.79926 15.8989L2.12273 15.9798C2.19011 15.9933 4.00959 16 7.58116 16C11.1527 16 12.979 15.9933 13.0598 15.9798C14.1785 15.6966 14.8658 15.0358 15.1219 13.9975C15.1489 13.8357 15.1623 13.4311 15.1623 12.7838V11.8331C15.1489 11.7118 15.1354 11.6174 15.1219 11.5499C15.0949 11.4421 15.0073 11.3139 14.8591 11.1656L14.8389 11.1454C14.7715 11.078 14.7041 11.0341 14.6367 11.0139C14.5693 10.9937 14.4682 10.9836 14.3335 10.9836C14.1043 10.9836 13.9291 11.0375 13.8078 11.1454C13.727 11.2128 13.6259 11.3477 13.5046 11.5499L13.4844 11.5904V12.6827L13.4641 13.5322C13.4507 13.6266 13.4372 13.7008 13.4237 13.7547C13.3294 14.011 13.1339 14.193 12.8374 14.3009H2.32489C2.0149 14.193 1.81948 14.011 1.73861 13.7547C1.72514 13.7008 1.71166 13.6266 1.69818 13.5322L1.67796 12.6827V11.5904C1.55667 11.3881 1.45558 11.2465 1.37472 11.1656C1.23994 11.0308 1.07147 10.9633 0.869307 10.9633Z" fill="#F4B41A"/>
</svg>
