<svg width="60" height="60" viewBox="0 0 60 60" fill="none" xmlns="http://www.w3.org/2000/svg">
<g clip-path="url(#clip0_69_753)">
<path d="M44.8125 26.8125L45 26.5626V17.6543L30 23.6543L15 17.6543V26.5622L15.1875 26.8122C15.3422 27.0191 19.1096 31.8747 30 31.8747C40.8904 31.8747 44.6576 27.0188 44.8125 26.8125Z" fill="white"/>
<path d="M58.5938 57.1875H7.96875C6.60123 57.1875 5.28972 56.6443 4.32273 55.6773C3.35575 54.7103 2.8125 53.3988 2.8125 52.0312C2.8125 50.6637 3.35575 49.3522 4.32273 48.3852C5.28972 47.4182 6.60123 46.875 7.96875 46.875H58.5938C58.9667 46.875 59.3244 46.7268 59.5881 46.4631C59.8518 46.1994 60 45.8417 60 45.4688C60 45.0958 59.8518 44.7381 59.5881 44.4744C59.3244 44.2107 58.9667 44.0625 58.5938 44.0625H7.96875C5.85531 44.0625 3.82842 44.9021 2.33399 46.3965C0.839562 47.8909 0 49.9178 0 52.0312C0 54.1447 0.839562 56.1716 2.33399 57.666C3.82842 59.1604 5.85531 60 7.96875 60H58.5938C58.9667 60 59.3244 59.8518 59.5881 59.5881C59.8518 59.3244 60 58.9667 60 58.5938C60 58.2208 59.8518 57.8631 59.5881 57.5994C59.3244 57.3357 58.9667 57.1875 58.5938 57.1875Z" fill="white"/>
<path d="M4.6875 52.0312C4.6875 52.4621 4.77237 52.8888 4.93727 53.2869C5.10217 53.685 5.34386 54.0468 5.64856 54.3514C5.95325 54.6561 6.31497 54.8978 6.71307 55.0627C7.11117 55.2276 7.53785 55.3125 7.96875 55.3125H58.5938V48.75H7.96875C7.09851 48.75 6.26391 49.0957 5.64856 49.7111C5.0332 50.3264 4.6875 51.161 4.6875 52.0312Z" fill="white"/>
<path d="M49.6875 24.8438C50.9819 24.8438 52.0312 23.7944 52.0312 22.5C52.0312 21.2056 50.9819 20.1562 49.6875 20.1562C48.3931 20.1562 47.3438 21.2056 47.3438 22.5C47.3438 23.7944 48.3931 24.8438 49.6875 24.8438Z" fill="white"/>
<path d="M45.6144 15.3891L29.6666 9.31411L30.3341 7.56098L48.1841 14.3616L55.9616 11.25L30.0003 0.865356L4.03906 11.25L30.0003 21.6347L45.6144 15.3891Z" fill="white"/>
<path d="M48.7494 16.5844V18.395C49.3653 18.244 50.0085 18.244 50.6244 18.395V15.2918L48.1832 14.3619L45.6133 15.3899L48.7494 16.5844Z" fill="white"/>
<path d="M8.4375 35.625C8.4375 36.1223 8.63504 36.5992 8.98668 36.9508C9.33831 37.3025 9.81522 37.5 10.3125 37.5H44.6617L45.2867 33.75H10.3125C9.81522 33.75 9.33831 33.9475 8.98668 34.2992C8.63504 34.6508 8.4375 35.1277 8.4375 35.625Z" fill="white"/>
<path d="M52.5 35.625L50.9784 26.4955C50.1436 26.7932 49.2314 26.7932 48.3966 26.4955L46.875 35.625H52.5Z" fill="white"/>
<path d="M10.3125 42.1875H51.0938C51.4667 42.1875 51.8244 42.0393 52.0881 41.7756C52.3518 41.5119 52.5 41.1542 52.5 40.7812C52.5 40.4083 52.3518 40.0506 52.0881 39.7869C51.8244 39.5232 51.4667 39.375 51.0938 39.375H10.3125C9.31794 39.375 8.36411 38.9799 7.66085 38.2766C6.95759 37.5734 6.5625 36.6196 6.5625 35.625C6.5625 34.6304 6.95759 33.6766 7.66085 32.9734C8.36411 32.2701 9.31794 31.875 10.3125 31.875H19.3875C17.6946 31.2068 16.1276 30.2557 14.7533 29.0625H10.3125C8.57202 29.0625 6.90282 29.7539 5.67211 30.9846C4.4414 32.2153 3.75 33.8845 3.75 35.625C3.75 37.3655 4.4414 39.0347 5.67211 40.2654C6.90282 41.4961 8.57202 42.1875 10.3125 42.1875Z" fill="white"/>
<path d="M46.0683 29.0625H45.2477C43.8734 30.2558 42.3063 31.2068 40.6133 31.875H45.5996L46.0683 29.0625Z" fill="white"/>
</g>
<defs>
<clipPath id="clip0_69_753">
<rect width="60" height="60" fill="white"/>
</clipPath>
</defs>
</svg>
