<svg width="17" height="12" viewBox="0 0 17 12" fill="none" xmlns="http://www.w3.org/2000/svg">
<path d="M8.352 3.43323e-05C8.7 3.43323e-05 9.018 0.0240479 9.306 0.0720749L9.666 0.126104C10.29 0.210151 10.98 0.438275 11.736 0.81048L12.132 1.00859C12.216 1.04461 12.303 1.09564 12.393 1.16167C12.483 1.22771 12.564 1.28474 12.636 1.33277C12.792 1.42882 13.002 1.5789 13.266 1.78302L13.374 1.87306C13.554 2.01714 13.704 2.14922 13.824 2.26928L14.346 2.79157C14.406 2.8516 14.514 2.97167 14.67 3.15177L14.814 3.33187C15.162 3.72808 15.48 4.15432 15.768 4.61057L15.912 4.82669C16.164 5.22291 16.332 5.50506 16.416 5.67315C16.452 5.73319 16.473 5.77821 16.479 5.80823C16.485 5.83824 16.488 5.90728 16.488 6.01534C16.488 6.1234 16.47 6.21945 16.434 6.3035C16.41 6.36353 16.368 6.43857 16.308 6.52862C16.248 6.61867 16.2 6.69371 16.164 6.75375C15.792 7.42612 15.342 8.06247 14.814 8.6628L14.67 8.8429C14.514 9.023 14.406 9.14306 14.346 9.20309L13.824 9.72538C13.692 9.85745 13.536 9.99553 13.356 10.1396L13.068 10.3557C12.528 10.8 11.754 11.2142 10.746 11.5984C10.35 11.7425 9.828 11.8626 9.18 11.9586C9.012 11.9826 8.763 11.9946 8.433 11.9946C8.103 11.9946 7.866 11.9886 7.722 11.9766C7.542 11.9766 7.356 11.9586 7.164 11.9226C6.228 11.7665 5.424 11.5204 4.752 11.1842C4.536 11.0761 4.404 11.0041 4.356 10.9681L4.194 10.878C4.086 10.818 4.008 10.77 3.96 10.7339C3.048 10.0856 2.352 9.47925 1.872 8.91494C1.416 8.37464 1.032 7.86436 0.72 7.38409L0.576 7.16798C0.324 6.77176 0.156 6.4896 0.072 6.32151C0.036 6.26148 0.015 6.21645 0.009 6.18644C0.003 6.15642 0 6.09338 0 5.99733C0 5.90128 0.003 5.83824 0.009 5.80823C0.015 5.77821 0.036 5.73319 0.072 5.67315C0.156 5.50506 0.324 5.22291 0.576 4.82669L0.72 4.61057C1.044 4.10629 1.524 3.49396 2.16 2.77356C2.484 2.41336 2.868 2.06517 3.312 1.72898L3.402 1.65695C3.486 1.58491 3.546 1.53688 3.582 1.51287C3.69 1.45283 3.816 1.36879 3.96 1.26073C4.008 1.22471 4.086 1.17668 4.194 1.11665L4.356 1.0266C4.5 0.91854 4.683 0.813482 4.905 0.711426C5.127 0.60937 5.346 0.528325 5.562 0.468292C6.378 0.240167 7.02 0.0900841 7.488 0.0180445C7.596 0.00603771 7.884 3.43323e-05 8.352 3.43323e-05ZM8.352 1.51287H7.776C7.644 1.51287 7.482 1.53088 7.29 1.5669L7.02 1.62093C6.696 1.66895 6.366 1.759 6.03 1.89107C5.826 1.97512 5.538 2.1132 5.166 2.3053L4.914 2.43137C4.89 2.44338 4.836 2.4794 4.752 2.53943L4.608 2.64749C4.248 2.88762 3.882 3.19379 3.51 3.566C3.258 3.81813 2.934 4.17233 2.538 4.62858C2.382 4.80868 2.166 5.12085 1.89 5.56509L1.62 5.99733L1.854 6.35753C2.118 6.77776 2.31 7.06592 2.43 7.222L2.502 7.31205C2.886 7.79232 3.192 8.14651 3.42 8.37464C4.032 8.98698 4.71 9.47925 5.454 9.85145C6.318 10.2837 7.314 10.4998 8.442 10.4998C8.742 10.4998 9.054 10.4698 9.378 10.4098C9.57 10.3617 9.846 10.2897 10.206 10.1936L10.26 10.1756C10.392 10.1396 10.584 10.0616 10.836 9.9415L11.124 9.79742C11.292 9.72538 11.496 9.60532 11.736 9.43722L11.88 9.34717C12.312 9.05902 12.708 8.73484 13.068 8.37464C13.128 8.31461 13.242 8.18253 13.41 7.97842L13.554 7.81633C13.782 7.56419 13.947 7.37209 14.049 7.24002C14.151 7.10794 14.292 6.89783 14.472 6.60967C14.616 6.38154 14.718 6.22546 14.778 6.14141L14.868 5.99733L14.796 5.88927C14.4 5.28894 14.088 4.8387 13.86 4.53853C13.488 4.04626 13.128 3.65004 12.78 3.34988C12.12 2.77356 11.502 2.34733 10.926 2.07117C10.146 1.69897 9.288 1.51287 8.352 1.51287ZM8.226 3.74609C8.982 3.74609 9.594 4.05827 10.062 4.68261C10.194 4.86271 10.296 5.04881 10.368 5.24092C10.44 5.45704 10.476 5.70917 10.476 5.99733C10.476 6.41756 10.386 6.78977 10.206 7.11395C10.062 7.36608 9.84 7.60622 9.54 7.83434C9.192 8.09849 8.76 8.23056 8.244 8.23056C7.32 8.23056 6.642 7.80433 6.21 6.95186C6.066 6.6637 5.994 6.34552 5.994 5.99733C5.994 5.51707 6.126 5.09083 6.39 4.71863C6.606 4.40646 6.906 4.15432 7.29 3.96221C7.578 3.81813 7.89 3.74609 8.226 3.74609ZM8.298 5.25893H8.136C8.016 5.25893 7.899 5.30395 7.785 5.394C7.671 5.48405 7.596 5.5771 7.56 5.67315C7.476 5.92529 7.491 6.16542 7.605 6.39355C7.719 6.62168 7.896 6.73574 8.136 6.73574H8.352C8.508 6.73574 8.652 6.6697 8.784 6.53763C8.916 6.40556 8.982 6.26148 8.982 6.10539V5.88927C8.982 5.7572 8.916 5.62513 8.784 5.49305C8.628 5.33697 8.466 5.25893 8.298 5.25893Z" fill="#F4B41A"/>
</svg>
