<svg width="60" height="60" viewBox="0 0 60 60" fill="none" xmlns="http://www.w3.org/2000/svg">
<g clip-path="url(#clip0_69_680)">
<mask id="mask0_69_680" style="mask-type:luminance" maskUnits="userSpaceOnUse" x="0" y="0" width="60" height="64">
<path d="M60 0H0V60H60V0Z" fill="white"/>
<path d="M18.043 58.0827V8.02372C18.043 4.56317 20.8483 1.75782 24.3089 1.75782H45.3317C48.7923 1.75782 51.5976 4.56317 51.5976 8.02372V51.9763C51.5976 55.4368 48.7923 58.2422 45.3317 58.2422H18.2025C18.1143 58.2422 18.043 58.1708 18.043 58.0827Z" fill="white"/>
<path d="M34.8223 8.75V35" stroke="black" stroke-width="3.80859" stroke-miterlimit="10"/>
<path d="M41.4531 11.25H44.9688" stroke="black" stroke-width="3.80859" stroke-miterlimit="10"/>
<path d="M41.4531 20.0549H44.9688" stroke="black" stroke-width="3.80859" stroke-miterlimit="10"/>
<path d="M41.4531 28.8597H44.9688" stroke="black" stroke-width="3.80859" stroke-miterlimit="10"/>
<path d="M28.1914 11.25H24.6758" stroke="black" stroke-width="3.80859" stroke-miterlimit="10"/>
<path d="M15.3774 18.3156C9.54898 18.3156 4.82422 23.0405 4.82422 28.8688V51.2168C4.82422 57.0451 9.54898 61.77 15.3774 61.77C21.2059 61.77 25.9306 57.0451 25.9306 51.2168V28.8688C25.9306 23.0405 21.2059 18.3156 15.3774 18.3156Z" fill="white"/>
<path d="M15.3774 18.3156C9.54898 18.3156 4.82422 23.0405 4.82422 28.8688V51.2168C4.82422 57.0451 9.54898 61.77 15.3774 61.77C21.2059 61.77 25.9306 57.0451 25.9306 51.2168V28.8688C25.9306 23.0405 21.2059 18.3156 15.3774 18.3156Z" stroke="black" stroke-width="3.80859" stroke-miterlimit="10"/>
<path d="M5.44531 40.0427H25.3102" stroke="black" stroke-width="3.80859" stroke-miterlimit="10"/>
<path d="M44.7539 47.4926C44.7539 55.2904 38.4326 61.6117 30.6348 61.6117C22.8371 61.6117 16.5156 55.2904 16.5156 47.4926C16.5156 39.6948 22.8371 33.3735 30.6348 33.3735C38.4326 33.3735 44.7539 39.6948 44.7539 47.4926Z" fill="white"/>
<path d="M44.7539 47.4926C44.7539 55.2904 38.4326 61.6117 30.6348 61.6117C22.8371 61.6117 16.5156 55.2904 16.5156 47.4926C16.5156 39.6948 22.8371 33.3735 30.6348 33.3735C38.4326 33.3735 44.7539 39.6948 44.7539 47.4926Z" stroke="black" stroke-width="3.80859" stroke-miterlimit="10"/>
<path d="M30.6367 41.2387V53.7463" stroke="black" stroke-width="3.80859" stroke-miterlimit="10"/>
<path d="M24.3809 47.4926H36.8885" stroke="black" stroke-width="3.80859" stroke-miterlimit="10"/>
</mask>
<g mask="url(#mask0_69_680)">
<mask id="mask1_69_680" style="mask-type:luminance" maskUnits="userSpaceOnUse" x="0" y="0" width="60" height="60">
<path d="M0 7.62939e-06H60V60H0V7.62939e-06Z" fill="white"/>
</mask>
<g mask="url(#mask1_69_680)">
<path d="M18.0449 58.0826V8.02359C18.0449 4.56305 20.8503 1.7577 24.3108 1.7577H45.3337C48.7942 1.7577 51.5996 4.56305 51.5996 8.02359V51.9762C51.5996 55.4367 48.7942 58.2421 45.3337 58.2421H18.2044C18.1163 58.2421 18.0449 58.1707 18.0449 58.0826Z" fill="white"/>
<path d="M18.0449 58.0826V8.02359C18.0449 4.56305 20.8503 1.7577 24.3108 1.7577H45.3337C48.7942 1.7577 51.5996 4.56305 51.5996 8.02359V51.9762C51.5996 55.4367 48.7942 58.2421 45.3337 58.2421H18.2044C18.1163 58.2421 18.0449 58.1707 18.0449 58.0826Z" stroke="white" stroke-width="3.80859" stroke-miterlimit="10"/>
<path d="M34.8242 8.74988V34.9999" stroke="white" stroke-width="3.80859" stroke-miterlimit="10"/>
<path d="M41.4551 11.25H44.9707" stroke="white" stroke-width="3.80859" stroke-miterlimit="10"/>
<path d="M41.4551 20.0548H44.9707" stroke="white" stroke-width="3.80859" stroke-miterlimit="10"/>
<path d="M41.4551 28.8597H44.9707" stroke="white" stroke-width="3.80859" stroke-miterlimit="10"/>
<path d="M28.1914 11.2499H24.6758" stroke="white" stroke-width="3.80859" stroke-miterlimit="10"/>
<path d="M15.3774 18.3156C9.54898 18.3156 4.82422 23.0405 4.82422 28.8688V51.2168C4.82422 57.0451 9.54898 61.77 15.3774 61.77C21.2059 61.77 25.9306 57.0451 25.9306 51.2168V28.8688C25.9306 23.0405 21.2059 18.3156 15.3774 18.3156Z" fill="white"/>
<path d="M15.3774 18.3156C9.54898 18.3156 4.82422 23.0405 4.82422 28.8688V51.2168C4.82422 57.0451 9.54898 61.77 15.3774 61.77C21.2059 61.77 25.9306 57.0451 25.9306 51.2168V28.8688C25.9306 23.0405 21.2059 18.3156 15.3774 18.3156Z" stroke="white" stroke-width="3.80859" stroke-miterlimit="10"/>
<path d="M5.44531 40.0428H25.3102" stroke="white" stroke-width="3.80859" stroke-miterlimit="10"/>
<path d="M44.7539 47.4925C44.7539 55.2902 38.4326 61.6116 30.6348 61.6116C22.8371 61.6116 16.5156 55.2902 16.5156 47.4925C16.5156 39.6947 22.8371 33.3734 30.6348 33.3734C38.4326 33.3734 44.7539 39.6947 44.7539 47.4925Z" fill="white"/>
<path d="M44.7539 47.4925C44.7539 55.2902 38.4326 61.6116 30.6348 61.6116C22.8371 61.6116 16.5156 55.2902 16.5156 47.4925C16.5156 39.6947 22.8371 33.3734 30.6348 33.3734C38.4326 33.3734 44.7539 39.6947 44.7539 47.4925Z" stroke="white" stroke-width="3.80859" stroke-miterlimit="10"/>
<path d="M30.6367 41.2388V53.7465" stroke="white" stroke-width="3.80859" stroke-miterlimit="10"/>
<path d="M24.3828 47.4926H36.8905" stroke="white" stroke-width="3.80859" stroke-miterlimit="10"/>
</g>
</g>
</g>
<defs>
<clipPath id="clip0_69_680">
<rect width="60" height="60" fill="white"/>
</clipPath>
</defs>
</svg>
