<svg width="24" height="24" viewBox="0 0 24 24" fill="none" xmlns="http://www.w3.org/2000/svg">
<g opacity="0.5">
<path d="M10.9556 4.57398C11.3771 4.52508 11.8012 4.5007 12.2256 4.50098C16.8896 4.50098 20.6256 7.40398 22.2256 11.501C21.8383 12.4976 21.315 13.4358 20.6706 14.289M6.74559 6.01998C4.70559 7.26498 3.12559 9.19398 2.22559 11.501C3.82559 15.598 7.56159 18.501 12.2256 18.501C14.1577 18.5112 16.0548 17.985 17.7056 16.981M10.1056 9.38098C9.82699 9.65958 9.60599 9.99032 9.45521 10.3543C9.30444 10.7183 9.22683 11.1085 9.22683 11.5025C9.22683 11.8965 9.30444 12.2866 9.45521 12.6506C9.60599 13.0146 9.82699 13.3454 10.1056 13.624C10.3842 13.9026 10.7149 14.1236 11.0789 14.2744C11.4429 14.4251 11.8331 14.5027 12.2271 14.5027C12.6211 14.5027 13.0112 14.4251 13.3752 14.2744C13.7392 14.1236 14.07 13.9026 14.3486 13.624" stroke="#273240" stroke-width="2" stroke-linecap="round" stroke-linejoin="round"/>
<path d="M4.22559 3.50098L20.2256 19.501" stroke="#273240" stroke-width="2" stroke-linecap="round"/>
</g>
</svg>
