<svg width="60" height="60" viewBox="0 0 60 60" fill="none" xmlns="http://www.w3.org/2000/svg">
<path d="M30.0001 15.2622C31.2126 15.2622 32.1955 14.2793 32.1955 13.0669C32.1955 11.8544 31.2126 10.8715 30.0001 10.8715C28.7876 10.8715 27.8047 11.8544 27.8047 13.0669C27.8047 14.2793 28.7876 15.2622 30.0001 15.2622Z" fill="white"/>
<path d="M56.7177 44.7377H3.28133L1.08594 49.1285H58.913L56.7177 44.7377Z" fill="white"/>
<path d="M20.9844 52.644L23.18 57.0351H36.8202L39.0158 52.644H20.9844Z" fill="white"/>
<path d="M20.3356 41.222V37.4306L14.4057 33.4774V27.5265C12.1142 26.7833 10.4523 24.6293 10.4523 22.0935C10.4523 18.9444 13.0143 16.3825 16.1635 16.3825C19.3125 16.3825 21.8745 18.9444 21.8745 22.0935C21.8745 24.6293 20.2127 26.7833 17.9213 27.5265V31.596L23.8512 35.5492V41.2219H28.2421V18.4999C25.9507 17.7567 24.2889 15.6027 24.2889 13.0669C24.2889 9.91782 26.8509 7.35586 29.9999 7.35586C33.149 7.35586 35.7109 9.91782 35.7109 13.0669C35.7109 15.6027 34.0491 17.7567 31.7577 18.4999V41.222H36.1486V35.5493L42.0786 31.5961V27.5266C39.7872 26.7834 38.1253 24.6294 38.1253 22.0936C38.1253 18.9445 40.6873 16.3826 43.8364 16.3826C46.9855 16.3826 49.5475 18.9445 49.5475 22.0936C49.5475 24.6294 47.8857 26.7834 45.5942 27.5266V33.4775L39.6643 37.4307V41.2221H56.0467V2.96497H3.95312V41.222H20.3356Z" fill="white"/>
<path d="M16.1643 19.8981C14.9536 19.8981 13.9688 20.8829 13.9688 22.0935C13.9688 23.304 14.9536 24.2889 16.1643 24.2889C17.3748 24.2889 18.3596 23.304 18.3596 22.0935C18.3596 20.8829 17.3748 19.8981 16.1643 19.8981Z" fill="white"/>
<path d="M17.0537 52.644H0V57.0351H19.2493L17.0537 52.644Z" fill="white"/>
<path d="M42.9456 52.644L40.75 57.0351H59.9993V52.644H42.9456Z" fill="white"/>
<path d="M43.836 19.8981C42.6255 19.8981 41.6406 20.8829 41.6406 22.0935C41.6406 23.304 42.6255 24.2889 43.836 24.2889C45.0467 24.2889 46.0315 23.304 46.0315 22.0935C46.0315 20.8829 45.0467 19.8981 43.836 19.8981Z" fill="white"/>
</svg>
