<svg width="18" height="19" viewBox="0 0 18 19" fill="none" xmlns="http://www.w3.org/2000/svg">
<path d="M9.92538 0.653939C10.5821 0.651419 11.2389 0.65802 11.8954 0.673739L12.07 0.680039C12.2716 0.687238 12.4705 0.696238 12.7108 0.707038C13.6684 0.752036 14.3217 0.903231 14.895 1.12552C15.489 1.35412 15.9894 1.6637 16.4898 2.16409C16.9473 2.61372 17.3014 3.15761 17.5274 3.75793C17.7497 4.33121 17.9009 4.98549 17.9459 5.94306C17.9567 6.18245 17.9657 6.38224 17.9729 6.58384L17.9783 6.75843C17.9943 7.41468 18.0012 8.07112 17.999 8.72756L17.9999 9.39894V10.5779C18.0021 11.2346 17.9952 11.8914 17.9792 12.5479L17.9738 12.7225C17.9666 12.9241 17.9576 13.123 17.9468 13.3633C17.9018 14.3209 17.7488 14.9743 17.5274 15.5475C17.3021 16.1485 16.9479 16.6928 16.4898 17.1423C16.0397 17.5998 15.4956 17.9538 14.895 18.1799C14.3217 18.4022 13.6684 18.5534 12.7108 18.5984C12.4705 18.6092 12.2716 18.6182 12.07 18.6254L11.8954 18.6308C11.2389 18.6468 10.5821 18.6537 9.92538 18.6515L9.254 18.6524H8.07594C7.4192 18.6546 6.76246 18.6477 6.10591 18.6317L5.93132 18.6263C5.71767 18.6186 5.50408 18.6096 5.29054 18.5993C4.33297 18.5543 3.67959 18.4013 3.10541 18.1799C2.50485 17.9544 1.96087 17.6002 1.51157 17.1423C1.05352 16.6925 0.699097 16.1483 0.473003 15.5475C0.250711 14.9743 0.0995159 14.3209 0.0545174 13.3633C0.0444944 13.1498 0.0354946 12.9362 0.0275183 12.7225L0.0230186 12.5479C0.00642639 11.8914 -0.00107416 11.2347 0.000519283 10.5779V8.72756C-0.0019925 8.07113 0.00460798 7.41469 0.0203187 6.75843L0.0266184 6.58384C0.0338182 6.38224 0.0428179 6.18245 0.0536175 5.94306C0.098616 4.98459 0.249811 4.33211 0.472103 3.75793C0.698331 3.15731 1.05345 2.61357 1.51247 2.16499C1.96146 1.70668 2.5051 1.35193 3.10541 1.12552C3.67959 0.903231 4.33207 0.752036 5.29054 0.707038L5.93132 0.680039L6.10591 0.675539C6.76215 0.658955 7.41859 0.651454 8.07504 0.653039L9.92538 0.653939ZM9.00021 5.15379C8.40399 5.14535 7.81203 5.2555 7.25875 5.47784C6.70547 5.70017 6.20189 6.03025 5.77728 6.44889C5.35268 6.86754 5.01551 7.36639 4.78538 7.91648C4.55524 8.46656 4.43673 9.0569 4.43673 9.65318C4.43673 10.2495 4.55524 10.8398 4.78538 11.3899C5.01551 11.94 5.35268 12.4388 5.77728 12.8575C6.20189 13.2761 6.70547 13.6062 7.25875 13.8285C7.81203 14.0509 8.40399 14.161 9.00021 14.1526C10.1936 14.1526 11.3382 13.6785 12.1821 12.8346C13.026 11.9907 13.5001 10.8462 13.5001 9.65273C13.5001 8.4593 13.026 7.31475 12.1821 6.47086C11.3382 5.62698 10.1936 5.15379 9.00021 5.15379ZM9.00021 6.95372C9.35886 6.94712 9.71522 7.01204 10.0485 7.1447C10.3818 7.27737 10.6853 7.47511 10.9412 7.72639C11.1972 7.97766 11.4006 8.27743 11.5394 8.60818C11.6783 8.93892 11.7498 9.29402 11.7499 9.65272C11.7499 10.0114 11.6785 10.3666 11.5398 10.6973C11.401 11.0281 11.1978 11.328 10.9419 11.5793C10.686 11.8307 10.3826 12.0285 10.0493 12.1613C9.7161 12.2941 9.35976 12.3591 9.00111 12.3526C8.28505 12.3526 7.59832 12.0682 7.09199 11.5619C6.58566 11.0555 6.30121 10.3688 6.30121 9.65273C6.30121 8.93667 6.58566 8.24994 7.09199 7.74361C7.59832 7.23728 8.28505 6.95282 9.00111 6.95282L9.00021 6.95372ZM13.7251 3.80383C13.4347 3.81545 13.1601 3.93896 12.9588 4.14849C12.7575 4.35803 12.6451 4.63732 12.6451 4.92789C12.6451 5.21846 12.7575 5.49776 12.9588 5.70729C13.1601 5.91682 13.4347 6.04034 13.7251 6.05196C14.0234 6.05196 14.3096 5.93343 14.5205 5.72246C14.7315 5.51149 14.85 5.22535 14.85 4.92699C14.85 4.62864 14.7315 4.3425 14.5205 4.13153C14.3096 3.92055 14.0234 3.80203 13.7251 3.80203V3.80383Z" fill="#F4B41A"/>
</svg>
