<svg width="19" height="20" viewBox="0 0 19 20" fill="none" xmlns="http://www.w3.org/2000/svg">
<path d="M2.125 0.652832C1.56141 0.652832 1.02091 0.876715 0.622398 1.27523C0.223883 1.67374 0 2.21425 0 2.77783C0 3.34142 0.223883 3.88192 0.622398 4.28043C1.02091 4.67895 1.56141 4.90283 2.125 4.90283C2.68859 4.90283 3.22909 4.67895 3.6276 4.28043C4.02612 3.88192 4.25 3.34142 4.25 2.77783C4.25 2.21425 4.02612 1.67374 3.6276 1.27523C3.22909 0.876715 2.68859 0.652832 2.125 0.652832ZM0.125 6.65283C0.0918479 6.65283 0.0600536 6.666 0.0366116 6.68944C0.0131695 6.71289 0 6.74468 0 6.77783V19.7778C0 19.8468 0.056 19.9028 0.125 19.9028H4.125C4.15815 19.9028 4.18995 19.8897 4.21339 19.8662C4.23683 19.8428 4.25 19.811 4.25 19.7778V6.77783C4.25 6.74468 4.23683 6.71289 4.21339 6.68944C4.18995 6.666 4.15815 6.65283 4.125 6.65283H0.125ZM6.625 6.65283C6.59185 6.65283 6.56005 6.666 6.53661 6.68944C6.51317 6.71289 6.5 6.74468 6.5 6.77783V19.7778C6.5 19.8468 6.556 19.9028 6.625 19.9028H10.625C10.6582 19.9028 10.6899 19.8897 10.7134 19.8662C10.7368 19.8428 10.75 19.811 10.75 19.7778V12.7778C10.75 12.2806 10.9475 11.8036 11.2992 11.452C11.6508 11.1004 12.1277 10.9028 12.625 10.9028C13.1223 10.9028 13.5992 11.1004 13.9508 11.452C14.3025 11.8036 14.5 12.2806 14.5 12.7778V19.7778C14.5 19.8468 14.556 19.9028 14.625 19.9028H18.625C18.6582 19.9028 18.6899 19.8897 18.7134 19.8662C18.7368 19.8428 18.75 19.811 18.75 19.7778V11.1578C18.75 8.73083 16.64 6.83283 14.225 7.05183C13.4778 7.11985 12.7459 7.30477 12.056 7.59983L10.75 8.15983V6.77783C10.75 6.74468 10.7368 6.71289 10.7134 6.68944C10.6899 6.666 10.6582 6.65283 10.625 6.65283H6.625Z" fill="#F4B41A"/>
</svg>
