<svg width="20" height="20" viewBox="0 0 20 20" fill="none" xmlns="http://www.w3.org/2000/svg">
<path d="M19.8107 18.9121L14.6469 13.8309C15.999 12.3617 16.8299 10.4187 16.8299 8.28064C16.8293 3.70697 13.0621 -0.000202179 8.41464 -0.000202179C3.7672 -0.000202179 0 3.70697 0 8.28064C0 12.8543 3.7672 16.5615 8.41464 16.5615C10.4227 16.5615 12.2644 15.867 13.711 14.7123L18.8949 19.8135C19.1474 20.0624 19.5574 20.0624 19.81 19.8135C20.0632 19.5648 20.0632 19.161 19.8107 18.9121ZM8.41464 15.2874C4.48241 15.2874 1.29471 12.1504 1.29471 8.28064C1.29471 4.4109 4.48241 1.27386 8.41464 1.27386C12.347 1.27386 15.5346 4.4109 15.5346 8.28064C15.5346 12.1504 12.347 15.2874 8.41464 15.2874Z" fill="white"/>
</svg>
