<svg width="16" height="17" viewBox="0 0 16 17" fill="none" xmlns="http://www.w3.org/2000/svg">
<path d="M9.65385 4.73077C9.65385 4.66667 9.64744 4.5641 9.63462 4.42308C9.60897 4.25641 9.59615 4.12821 9.59615 4.03846C9.59615 3.64103 9.70513 3.22436 9.92308 2.78846C10.5256 1.58333 11.5128 0.98077 12.8846 0.98077C13.2308 0.98077 13.5513 1.03205 13.8462 1.13462C14.0897 1.21154 14.3397 1.33974 14.5962 1.51923L14.7115 1.59616C14.8654 1.69872 14.9872 1.80128 15.0769 1.90385C15.2564 2.08333 15.4038 2.27564 15.5192 2.48077C15.6218 2.64744 15.7276 2.86859 15.8365 3.14423C15.9455 3.41987 16 3.76282 16 4.17308C16 4.58333 15.9487 4.92308 15.8462 5.19231C15.359 6.42308 14.5321 7.13462 13.3654 7.32692L13.2885 7.34615C13.1218 7.3718 13.0064 7.38462 12.9423 7.38462C11.9808 7.38462 11.1923 7.07692 10.5769 6.46154L10.3654 6.26923L8.25 7.36539L6.34615 8.32692L6.36539 8.69231C6.39103 8.92308 6.39744 9.09615 6.38462 9.21154C6.35897 9.39103 6.34615 9.5 6.34615 9.53846V9.63462L8.25 10.5962L9.05769 11.0192C9.82692 11.4038 10.2628 11.6346 10.3654 11.7115L10.5385 11.5192C11.1667 10.891 11.9679 10.5769 12.9423 10.5769C13.4808 10.5769 14.0321 10.7628 14.5962 11.1346L14.7115 11.2115C14.8654 11.3141 14.9872 11.4167 15.0769 11.5192C15.2564 11.6987 15.4038 11.891 15.5192 12.0962C15.6218 12.2628 15.7276 12.484 15.8365 12.7596C15.9455 13.0353 16 13.3782 16 13.7885C16 14.1987 15.9487 14.5385 15.8462 14.8077C15.359 16.0385 14.5321 16.75 13.3654 16.9423L13.2885 16.9615C13.1218 16.9872 13.0064 17 12.9423 17C11.9808 17 11.2051 16.7051 10.6154 16.1154L10.5192 16.0192C10.4167 15.9295 10.3526 15.8654 10.3269 15.8269C9.95513 15.3397 9.73077 14.8462 9.65385 14.3462L9.63462 14.2692C9.60897 14.1026 9.59615 13.9808 9.59615 13.9038C9.59615 13.8269 9.60897 13.7051 9.63462 13.5385C9.64744 13.3974 9.65385 13.2949 9.65385 13.2308V13.1346L6.51923 11.5192C6.05769 11.2756 5.76282 11.1282 5.63462 11.0769L5.42308 11.2885C4.97436 11.7372 4.41667 12.0192 3.75 12.1346L3.67308 12.1538C3.50641 12.1795 3.39103 12.1923 3.32692 12.1923C2.36538 12.1923 1.58974 11.8974 1 11.3077L0.903846 11.2115C0.801282 11.1218 0.73718 11.0577 0.711538 11.0192C0.480769 10.7115 0.314103 10.4231 0.211538 10.1538C0.0705128 9.80769 0 9.41667 0 8.98077C0 8.6859 0.025641 8.4359 0.0769231 8.23077C0.128205 8.02564 0.205128 7.8141 0.307692 7.59615C0.551282 7.10898 0.830128 6.7468 1.14423 6.50962C1.45833 6.27244 1.76923 6.09615 2.07692 5.98077C2.46154 5.83974 2.87821 5.76923 3.32692 5.76923C3.86538 5.76923 4.41667 5.95513 4.98077 6.32692L5.03846 6.36539C5.21795 6.49359 5.34615 6.59615 5.42308 6.67308L5.63462 6.88462C5.76282 6.83333 6.05769 6.6859 6.51923 6.44231L9.65385 4.82692V4.73077ZM12.7885 2.57692C12.5577 2.57692 12.3526 2.6218 12.1731 2.71154C12.0577 2.76282 11.9103 2.85898 11.7308 3L11.6923 3.01923C11.5513 3.1218 11.4359 3.28205 11.3462 3.5C11.2564 3.71795 11.2115 3.94231 11.2115 4.17308C11.2115 4.51923 11.3013 4.8141 11.4808 5.05769L11.5385 5.13462C11.6026 5.23718 11.6538 5.30128 11.6923 5.32692C11.8846 5.46795 12.0449 5.57051 12.1731 5.63462C12.3654 5.72436 12.5769 5.76923 12.8077 5.76923C13.0385 5.76923 13.25 5.72436 13.4423 5.63462C13.5577 5.58333 13.7115 5.48718 13.9038 5.34615L13.9231 5.32692C14.0641 5.22436 14.1795 5.0641 14.2692 4.84615C14.359 4.62821 14.4038 4.40385 14.4038 4.17308C14.4038 3.82692 14.3141 3.53205 14.1346 3.28846L14.0769 3.21154C14.0128 3.10898 13.9615 3.04487 13.9231 3.01923C13.7308 2.87821 13.5705 2.77564 13.4423 2.71154C13.25 2.6218 13.0321 2.57692 12.7885 2.57692ZM3.17308 7.38462C2.94231 7.38462 2.73718 7.42949 2.55769 7.51923C2.44231 7.57051 2.29487 7.66667 2.11538 7.80769L2.07692 7.82692C1.9359 7.92949 1.82051 8.08974 1.73077 8.30769C1.64103 8.52564 1.59615 8.75 1.59615 8.98077C1.59615 9.32692 1.6859 9.6218 1.86538 9.86539L1.92308 9.94231C1.98718 10.0449 2.03846 10.109 2.07692 10.1346C2.26923 10.2756 2.42949 10.3782 2.55769 10.4423C2.75 10.5321 2.96154 10.5769 3.19231 10.5769C3.42308 10.5769 3.63462 10.5321 3.82692 10.4423C3.94231 10.391 4.09615 10.2949 4.28846 10.1538L4.30769 10.1346C4.44872 10.0321 4.5641 9.8718 4.65385 9.65385C4.74359 9.4359 4.78846 9.21154 4.78846 8.98077C4.78846 8.63462 4.69872 8.33974 4.51923 8.09615L4.46154 8.01923C4.39744 7.91667 4.34615 7.85256 4.30769 7.82692C4.11538 7.6859 3.95513 7.58333 3.82692 7.51923C3.63462 7.42949 3.41667 7.38462 3.17308 7.38462ZM12.7885 12.1923C12.5577 12.1923 12.3526 12.2372 12.1731 12.3269C12.0577 12.3782 11.9103 12.4744 11.7308 12.6154L11.6923 12.6346C11.5513 12.7372 11.4359 12.8974 11.3462 13.1154C11.2564 13.3333 11.2115 13.5577 11.2115 13.7885C11.2115 14.1346 11.3013 14.4295 11.4808 14.6731L11.5385 14.75C11.6026 14.8526 11.6538 14.9167 11.6923 14.9423C11.8846 15.0833 12.0449 15.1859 12.1731 15.25C12.3654 15.3397 12.5769 15.3846 12.8077 15.3846C13.0385 15.3846 13.25 15.3397 13.4423 15.25C13.5577 15.1987 13.7115 15.1026 13.9038 14.9615L13.9231 14.9423C14.0641 14.8397 14.1795 14.6795 14.2692 14.4615C14.359 14.2436 14.4038 14.0192 14.4038 13.7885C14.4038 13.4423 14.3141 13.1474 14.1346 12.9038L14.0769 12.8269C14.0128 12.7244 13.9615 12.6603 13.9231 12.6346C13.7308 12.4936 13.5705 12.391 13.4423 12.3269C13.25 12.2372 13.0321 12.1923 12.7885 12.1923Z" fill="#F4B41A"/>
</svg>
