<svg width="25" height="24" viewBox="0 0 25 24" fill="none" xmlns="http://www.w3.org/2000/svg">
<path d="M6.67275 8.78994C6.57902 8.8829 6.50463 8.9935 6.45386 9.11536C6.40309 9.23722 6.37695 9.36793 6.37695 9.49994C6.37695 9.63195 6.40309 9.76266 6.45386 9.88452C6.50463 10.0064 6.57902 10.117 6.67275 10.2099L11.6728 15.2099C11.7657 15.3037 11.8763 15.3781 11.9982 15.4288C12.12 15.4796 12.2507 15.5057 12.3828 15.5057C12.5148 15.5057 12.6455 15.4796 12.7673 15.4288C12.8892 15.3781 12.9998 15.3037 13.0928 15.2099L18.0928 10.2099C18.1865 10.117 18.2609 10.0064 18.3116 9.88452C18.3624 9.76266 18.3885 9.63195 18.3885 9.49994C18.3885 9.36793 18.3624 9.23722 18.3116 9.11536C18.2609 8.9935 18.1865 8.8829 18.0928 8.78994C17.9998 8.69621 17.8892 8.62182 17.7673 8.57105C17.6455 8.52028 17.5148 8.49414 17.3828 8.49414C17.2507 8.49414 17.12 8.52028 16.9982 8.57105C16.8763 8.62182 16.7657 8.69621 16.6728 8.78994L12.3828 13.0899L8.09275 8.78994C7.99979 8.69621 7.88919 8.62182 7.76733 8.57105C7.64547 8.52028 7.51476 8.49414 7.38275 8.49414C7.25074 8.49414 7.12003 8.52028 6.99817 8.57105C6.87632 8.62182 6.76571 8.69621 6.67275 8.78994Z" fill="#666968"/>
</svg>
